# xmcd
#
# Track frame offsets:
# 150
# 12158
# 29931
# 45765
# 60819
# 75685
# 97298
# 112154
# 124162
# 150819
# 166497
# 206777
# 232785
# 251840
#
# Disc length: 3629 seconds
#
# Revision: 0
# Processed by: cddbd v1.5.1PL2 Copyright (c) Steve Scherf et al.
# Submitted via: Audion 3.0.2 (http://www.panic.com/audion/)
#
DISCID=b00e2b0e
DTITLE=q - q
DYEAR=1900
DGENRE=
TTITLE0=w
TTITLE1=w
TTITLE2=w
TTITLE3=w
TTITLE4=w
TTITLE5=w
TTITLE6=w
TTITLE7=w
TTITLE8=w
TTITLE9=w
TTITLE10=w
TTITLE11=w
TTITLE12=w
TTITLE13=w
EXTD=
EXTT0=
EXTT1=
EXTT2=
EXTT3=
EXTT4=
EXTT5=
EXTT6=
EXTT7=
EXTT8=
EXTT9=
EXTT10=
EXTT11=
EXTT12=
EXTT13=
PLAYORDER=
